<?xml version="1.0" encoding="UTF-8" standalone="no"?><!DOCTYPE svg PUBLIC "-//W3C//DTD SVG 1.1//EN" "http://www.w3.org/Graphics/SVG/1.1/DTD/svg11.dtd"><svg width="100%" height="100%" viewBox="0 0 32 32" version="1.1" xmlns="http://www.w3.org/2000/svg" xmlns:xlink="http://www.w3.org/1999/xlink" xml:space="preserve" xmlns:serif="http://www.serif.com/" style="fill-rule:evenodd;clip-rule:evenodd;stroke-linejoin:round;stroke-miterlimit:2;"><path d="M16,5c-3.252,0 -7.688,0.051 -8.588,0.131c-1.01,0.606 -3.009,2.9 -3.029,3.496l-0,1c-0,1.263 1.183,2.373 2.254,2.373c1.283,0 2.353,-1.07 2.353,-2.332c0,1.262 1.041,2.332 2.323,2.332c1.293,0 2.292,-1.069 2.292,-2.332c0,1.262 1.09,2.332 2.383,2.332l0.022,0c1.293,0 2.383,-1.069 2.383,-2.332c-0,1.262 1.01,2.332 2.293,2.332c1.283,0 2.324,-1.069 2.324,-2.332c-0,1.262 1.07,2.332 2.353,2.332c1.071,0 2.252,-1.11 2.252,-2.373l0,-1c-0.02,-0.596 -2.019,-2.89 -3.029,-3.496c-3.142,-0.111 -5.334,-0.131 -8.586,-0.131Zm-2.449,6.742c-1.053,1.81 -3.699,1.832 -4.731,0.012c-0.63,1.092 -2.056,1.514 -2.666,1.307c-0.178,1.899 -0.301,11.648 0.992,13.283c3.797,0.885 14.019,0.866 17.708,-0c1.495,-1.524 1.16,-11.522 0.992,-13.283c-0.61,0.207 -2.037,-0.215 -2.657,-1.307c-1.043,1.82 -3.688,1.798 -4.74,-0.012c-0.325,0.59 -1.082,1.367 -2.449,1.367c-1.003,0.039 -1.948,-0.502 -2.449,-1.367Zm-2.131,2.258c0.8,0 1.53,0 2.41,0.98c1.45,-0.15 2.89,-0.15 4.34,0c0.89,-0.97 1.61,-0.97 2.41,-0.97c2.58,-0 3.201,3.81 4.131,7.09c0.84,3.05 -0.282,3.13 -1.672,3.13c-2.07,-0.08 -3.219,-1.579 -3.219,-3.089c-1.93,0.32 -5.01,0.44 -7.64,-0c-0,1.51 -1.149,3.009 -3.219,3.089c-1.39,0 -2.512,-0.08 -1.672,-3.13c0.93,-3.3 1.551,-7.09 4.131,-7.09l-0,-0.01Zm4.58,2.877c0,-0 -1.694,1.562 -2,2.107l1.107,-0.041l0,0.967c0,0.058 0.819,0.008 0.893,0.008c0.447,0.017 0.893,0.033 0.893,-0.008l-0,-0.967l1.107,0.041c-0.306,-0.546 -2,-2.107 -2,-2.107Z" style="fill:#fff;fill-rule:nonzero;"/></svg>