<?xml version="1.0" encoding="UTF-8" standalone="no"?><!DOCTYPE svg PUBLIC "-//W3C//DTD SVG 1.1//EN" "http://www.w3.org/Graphics/SVG/1.1/DTD/svg11.dtd"><svg width="100%" height="100%" viewBox="0 0 32 32" version="1.1" xmlns="http://www.w3.org/2000/svg" xmlns:xlink="http://www.w3.org/1999/xlink" xml:space="preserve" xmlns:serif="http://www.serif.com/" style="fill-rule:evenodd;clip-rule:evenodd;stroke-linejoin:round;stroke-miterlimit:2;"><rect id="Artboard1" x="0" y="0" width="32" height="32" style="fill:none;"/><path d="M23.716,5c-0,0 -16.818,0 -16.818,0c-0.252,0 -0.459,0.207 -0.459,0.458l0,0.917c0,0.251 0.207,0.458 0.459,0.458l1.375,0c0.754,0 1.375,0.621 1.375,1.375l-0,15.584c-0,0.754 -0.621,1.375 -1.375,1.375l-1.375,-0c-0.252,-0 -0.459,0.207 -0.459,0.458l0,0.917c0,0.251 0.207,0.458 0.459,0.458l16.7,0c0.42,0 0.788,-0.288 0.89,-0.694l1.059,-5.153c0.009,-0.036 0.014,-0.074 0.014,-0.111c-0,-0.252 -0.207,-0.459 -0.459,-0.459l-0.916,0c-0.197,0 -0.373,0.127 -0.435,0.314l-1.242,2.632c-0.288,0.968 -1.185,1.637 -2.195,1.638l-5.625,-0c-0.754,-0 -1.375,-0.621 -1.375,-1.375l0,-6.875l3.667,-0c1.257,-0 2.292,1.034 2.292,2.291l-0,0.459l1.375,-0l-0,-7.792l-1.375,0l-0,0.917c-0,1.257 -1.035,2.291 -2.292,2.291l-3.667,0l0,-6.875c0,-0.754 0.621,-1.375 1.375,-1.375l5.5,0c1.258,0 2.292,1.035 2.292,2.292l0,1.833c0,0.252 0.207,0.459 0.458,0.459l0.52,-0c0.227,-0 0.421,-0.169 0.453,-0.394l0.711,-4.977c0.006,-0.043 0.01,-0.086 0.01,-0.129c-0,-0.503 -0.414,-0.917 -0.917,-0.917Z" style="fill:#fff;fill-rule:nonzero;"/></svg>