<?xml version="1.0" encoding="UTF-8" standalone="no"?><!DOCTYPE svg PUBLIC "-//W3C//DTD SVG 1.1//EN" "http://www.w3.org/Graphics/SVG/1.1/DTD/svg11.dtd"><svg width="100%" height="100%" viewBox="0 0 32 32" version="1.1" xmlns="http://www.w3.org/2000/svg" xmlns:xlink="http://www.w3.org/1999/xlink" xml:space="preserve" xmlns:serif="http://www.serif.com/" style="fill-rule:evenodd;clip-rule:evenodd;stroke-linejoin:round;stroke-miterlimit:2;"><path d="M11.469,5c-3.551,0 -6.469,2.914 -6.469,6.469l0,9.062c0,3.551 2.914,6.469 6.469,6.469l9.062,0c3.551,0 6.469,-2.914 6.469,-6.469l0,-9.062c0,-3.551 -2.914,-6.469 -6.469,-6.469l-9.062,0Zm-0,2l9.062,0c2.473,0 4.469,1.996 4.469,4.469l0,9.062c0,2.473 -1.996,4.469 -4.469,4.469l-9.062,0c-2.473,0 -4.469,-1.996 -4.469,-4.469l0,-9.062c0,-2.473 1.996,-4.469 4.469,-4.469Zm10.437,2.188c-0.504,-0 -0.906,0.402 -0.906,0.906c0,0.504 0.402,0.906 0.906,0.906c0.504,0 0.907,-0.402 0.907,-0.906c-0,-0.504 -0.403,-0.906 -0.907,-0.906Zm-5.906,0.812c-3.301,0 -6,2.699 -6,6c0,3.301 2.699,6 6,6c3.301,0 6,-2.699 6,-6c0,-3.301 -2.699,-6 -6,-6Zm0,2c2.223,0 4,1.777 4,4c0,2.223 -1.777,4 -4,4c-2.223,0 -4,-1.777 -4,-4c0,-2.223 1.777,-4 4,-4Z" style="fill:#fff;fill-rule:nonzero;"/></svg>