<?xml version="1.0" encoding="UTF-8" standalone="no"?><!DOCTYPE svg PUBLIC "-//W3C//DTD SVG 1.1//EN" "http://www.w3.org/Graphics/SVG/1.1/DTD/svg11.dtd"><svg width="100%" height="100%" viewBox="0 0 952 412" version="1.1" xmlns="http://www.w3.org/2000/svg" xmlns:xlink="http://www.w3.org/1999/xlink" xml:space="preserve" xmlns:serif="http://www.serif.com/" style="fill-rule:evenodd;clip-rule:evenodd;stroke-linejoin:round;stroke-miterlimit:2;"><rect id="Artboard1" x="0" y="0" width="952" height="412" style="fill:none;"/><clipPath id="_clip1"><rect x="0" y="0" width="952" height="412"/></clipPath><g clip-path="url(#_clip1)"><g><g id="SaisojArts"><rect x="-64" y="-334" width="1080" height="1080" style="fill:none;"/><g><path d="M488.77,271.002l56.515,-0c5.51,0.014 9.975,4.489 9.975,10c-0,5.51 -4.465,9.986 -9.975,10l-20.025,-0l-0,70c-0,5.519 -4.48,10 -10,10c-5.52,-0 -10,-4.481 -10,-10l-0,-70l-16.49,-0c-5.515,-0.008 -9.985,-4.486 -9.985,-10c-0,-5.514 4.47,-9.992 9.985,-10Zm-78.7,44.62c-1.655,-4.755 -3.8,-9.313 -3.8,-14.62c-0,-16.558 13.445,-30 30,-30c16.56,-0 30,13.442 30,30c-0,8.118 -3.23,15.488 -8.475,20.891l17.075,9.782c2.565,0.995 4.71,3.036 5.75,5.811l7.5,20.005c1.94,5.167 -0.685,10.936 -5.85,12.874c-5.17,1.938 -10.935,-0.684 -12.875,-5.852l-6.175,-16.461l-24.995,-14.32l8.91,23.759c1.935,5.167 -0.685,10.936 -5.855,12.874c-5.165,1.938 -10.935,-0.684 -12.875,-5.852c-0,0 -14.645,-38.306 -18.335,-48.891Zm26.04,-24.624c-5.515,0 -10,4.481 -10,10c-0,5.519 4.485,10 10,10c5.52,0 10,-4.481 10,-10c-0,-5.519 -4.48,-10 -10,-10Zm-88.98,73.515c-1.935,5.168 -7.705,7.79 -12.875,5.852c-5.17,-1.938 -7.79,-7.707 -5.85,-12.875l30,-80.004c1.465,-3.904 5.195,-6.49 9.365,-6.49c4.165,0 7.9,2.586 9.36,6.49l30.005,80.004c1.935,5.168 -0.685,10.937 -5.855,12.875c-5.165,1.938 -10.935,-0.684 -12.875,-5.852l-20.635,-55.034l-20.64,55.034Zm208.125,-13.511l45,-0c5.52,-0 10,-4.481 10,-10c-0,-5.519 -4.48,-10 -10,-10c-8.88,-0 -16.86,-3.864 -22.355,-10c-4.755,-5.309 -7.645,-12.32 -7.645,-20c-0,-16.558 13.44,-30 30,-30l20,-0c5.52,-0 10,4.481 10,10c-0,2.758 -1.12,5.257 -2.93,7.067c-1.81,1.811 -4.31,2.933 -7.07,2.933l-20,-0c-5.52,-0 -10,4.481 -10,10c-0,5.519 4.48,10 10,10c8.875,-0 16.855,3.864 22.355,10c4.75,5.309 7.645,12.319 7.645,20c-0,16.557 -13.445,30 -30,30l-45,-0c-5.515,-0.004 -9.995,-4.483 -9.995,-10c-0,-5.517 4.48,-9.997 9.995,-10Zm-30.74,-270.002l-30.025,0c-11.04,0 -20,8.965 -20,20c-0,11.04 8.96,20 20,20l30.015,0c8.7,0 16.975,1.86 24.445,5.2c20.945,9.365 35.555,30.39 35.555,54.8c-0,33.115 -26.885,60 -60,60l-30.015,0c-11.04,0 -20,-8.96 -20,-20c-0,-1.965 0.285,-3.865 0.815,-5.665c2.445,-8.28 10.115,-14.335 19.185,-14.335l30.015,0c11.035,0 20,-8.96 20,-20c-0,-11.035 -8.965,-20 -20,-20l-30.015,0c-8.705,0 -16.98,-1.855 -24.445,-5.195c-20.945,-9.37 -35.555,-30.395 -35.555,-54.805c-0,-33.115 26.885,-60 60,-60l30.025,0c11.02,0.02 19.96,8.975 19.96,20c-0,1.96 -0.28,3.85 -0.805,5.64c-2.435,8.285 -10.09,14.345 -19.155,14.36Zm98.9,-26.39c10.355,-8.5 23.605,-13.61 38.04,-13.61l60,0c14.43,0 27.68,5.11 38.035,13.61c13.405,11.01 21.965,27.71 21.965,46.39c-0,4.24 -0.445,8.38 -1.28,12.37c-1.26,6.005 -33.4,91.755 -36.4,97.07c-7.55,13.365 -20.07,23.55 -35.04,28.045c-5.465,1.635 -11.255,2.515 -17.245,2.515c-6.01,0 -11.815,-0.885 -17.29,-2.53c-15.1,-4.545 -27.705,-14.885 -35.22,-28.43c-2.815,-5.075 -34.99,-90.665 -36.25,-96.67c-0.835,-3.99 -1.275,-8.13 -1.275,-12.37c-0,-18.68 8.555,-35.38 21.96,-46.39Zm18.135,48.35c0.345,3.57 31.665,86.815 33.57,89.53c3.62,5.145 9.605,8.51 16.37,8.51c6.67,0 12.58,-3.27 16.215,-8.29c2.045,-2.83 33.305,-86.18 33.655,-89.75c0.06,-0.645 0.095,-1.3 0.095,-1.96c-0,-11.035 -8.965,-20 -20,-20l-60,0c-11.04,0 -20,8.965 -20,20c-0,0.665 0.03,1.315 0.095,1.96Zm211.965,-61.96c33.115,0 60,26.885 60,60l-0,80c-0,33.115 -26.885,60 -60,60c-33.115,0 -60,-26.885 -60,-60c-0,-11.035 8.96,-20 20,-20c10.625,0 19.325,8.3 19.965,18.765c-0.025,0.41 -0.025,2.065 -0,2.475c0.64,10.46 9.335,18.76 19.96,18.76c11.04,0 20,-8.96 20,-20l-0,-80c-0,-11.01 -8.92,-19.96 -19.925,-20l-0.075,0c-11.005,-0.04 -19.925,-8.985 -19.925,-20c-0,-11.035 8.96,-20 20,-20Zm-793.72,100c-9.505,-10.615 -15.29,-24.64 -15.29,-40c-0,-33.115 26.885,-60 60,-60l90,0c11.03,0.01 19.985,8.97 19.985,20c-0,11.035 -8.955,19.995 -19.985,20l-90,0c-11.04,0 -20,8.965 -20,20c-0,11.04 8.96,20 20,20c17.75,0 33.715,7.73 44.705,20c9.51,10.62 15.295,24.64 15.295,40c-0,33.115 -26.885,60 -60,60l-40,0c-11.04,0 -20,-8.96 -20,-20c-0,-5.515 2.235,-10.515 5.85,-14.13c3.625,-3.625 8.625,-5.87 14.15,-5.87l40,0c11.035,0 20,-8.96 20,-20c-0,-11.035 -8.965,-20 -20,-20c-17.755,0 -33.72,-7.725 -44.71,-20Zm275.97,-72.975c-3.875,-10.335 1.365,-21.875 11.7,-25.75c10.34,-3.875 21.875,1.37 25.75,11.705l60,160c3.875,10.335 -1.365,21.87 -11.7,25.75c-10.34,3.875 -21.875,-1.37 -25.75,-11.705l-60,-160Zm-102.55,160c-3.875,10.335 -15.41,15.58 -25.75,11.705c-10.335,-3.88 -15.575,-15.415 -11.7,-25.75l60,-160c2.925,-7.805 10.39,-12.98 18.725,-12.98c8.335,0 15.8,5.175 18.725,12.98l60,160c3.875,10.335 -1.365,21.87 -11.7,25.75c-10.34,3.875 -21.875,-1.37 -25.75,-11.705l-41.275,-110.065l-41.275,110.065Z" style="fill:#fff;"/></g></g></g></g></svg>