<?xml version="1.0" encoding="UTF-8" standalone="no"?>
<!-- Uploaded to: SVG Repo, www.svgrepo.com, Generator: SVG Repo Mixer Tools -->

<svg
   width="800px"
   height="800px"
   viewBox="0 0 24 24"
   fill="none"
   version="1.1"
   id="svg4"
   sodipodi:docname="code-1-svgrepo-com.svg"
   inkscape:version="1.1.1 (3bf5ae0d25, 2021-09-20)"
   xmlns:inkscape="http://www.inkscape.org/namespaces/inkscape"
   xmlns:sodipodi="http://sodipodi.sourceforge.net/DTD/sodipodi-0.dtd"
   xmlns="http://www.w3.org/2000/svg"
   xmlns:svg="http://www.w3.org/2000/svg">
  <defs
     id="defs8" />
  <sodipodi:namedview
     id="namedview6"
     pagecolor="#505050"
     bordercolor="#eeeeee"
     borderopacity="1"
     inkscape:pageshadow="0"
     inkscape:pageopacity="0"
     inkscape:pagecheckerboard="0"
     showgrid="false"
     inkscape:zoom="1.0175"
     inkscape:cx="368.55037"
     inkscape:cy="393.12039"
     inkscape:window-width="2560"
     inkscape:window-height="1494"
     inkscape:window-x="-11"
     inkscape:window-y="-11"
     inkscape:window-maximized="1"
     inkscape:current-layer="svg4" />
  <path
     d="M16.19 2H7.81C4.17 2 2 4.17 2 7.81V16.18C2 19.83 4.17 22 7.81 22H16.18C19.82 22 21.99 19.83 21.99 16.19V7.81C22 4.17 19.83 2 16.19 2ZM9.94 13.27C9.26 14.29 8.32 15.12 7.22 15.67C7.12 15.72 7 15.75 6.89 15.75C6.61 15.75 6.35 15.6 6.22 15.34C6.03 14.97 6.18 14.52 6.56 14.33C7.43 13.9 8.17 13.24 8.7 12.44C8.88 12.17 8.88 11.83 8.7 11.56C8.16 10.76 7.42 10.1 6.56 9.67C6.18 9.49 6.03 9.04 6.22 8.66C6.4 8.29 6.85 8.14 7.22 8.33C8.32 8.88 9.26 9.71 9.94 10.73C10.46 11.5 10.46 12.5 9.94 13.27ZM17 15.75H13C12.59 15.75 12.25 15.41 12.25 15C12.25 14.59 12.59 14.25 13 14.25H17C17.41 14.25 17.75 14.59 17.75 15C17.75 15.41 17.41 15.75 17 15.75Z"
     fill="#292D32"
     id="path2"
     style="fill:#ffffff" />
</svg>
