<?xml version="1.0" encoding="UTF-8" standalone="no"?>
<!-- Uploaded to: SVG Repo, www.svgrepo.com, Generator: SVG Repo Mixer Tools -->

<svg
   width="800px"
   height="800px"
   viewBox="0 0 24 24"
   fill="none"
   version="1.1"
   id="svg20"
   sodipodi:docname="global-svgrepo-com.svg"
   inkscape:version="1.1.1 (3bf5ae0d25, 2021-09-20)"
   xmlns:inkscape="http://www.inkscape.org/namespaces/inkscape"
   xmlns:sodipodi="http://sodipodi.sourceforge.net/DTD/sodipodi-0.dtd"
   xmlns="http://www.w3.org/2000/svg"
   xmlns:svg="http://www.w3.org/2000/svg">
  <defs
     id="defs24" />
  <sodipodi:namedview
     id="namedview22"
     pagecolor="#505050"
     bordercolor="#eeeeee"
     borderopacity="1"
     inkscape:pageshadow="0"
     inkscape:pageopacity="0"
     inkscape:pagecheckerboard="0"
     showgrid="false"
     inkscape:zoom="1.0175"
     inkscape:cx="400"
     inkscape:cy="400"
     inkscape:window-width="2560"
     inkscape:window-height="1494"
     inkscape:window-x="-11"
     inkscape:window-y="-11"
     inkscape:window-maximized="1"
     inkscape:current-layer="svg20" />
  <path
     id="path2"
     style="fill:#ffffff;stroke-width:33.3333"
     d="M 400.05664 66.666016 C 371.72331 66.666016 344.72329 70.666667 318.39062 77 C 318.05729 79.666667 318.39128 81.667318 317.72461 84.333984 C 302.72461 128.33398 292.05794 173.99935 283.72461 219.66602 C 361.05728 210.99935 439.05729 210.99935 516.39062 219.66602 C 508.05729 173.99935 497.39062 128.66732 482.39062 84.333984 C 481.72396 81.667318 481.72396 79.666667 481.39062 77 C 455.39063 70.666667 428.05664 66.666016 400.05664 66.666016 z M 542.9707 99.349609 C 555.9707 141.01628 566.30273 183.68164 573.30273 226.68164 C 616.30273 234.01497 658.63672 244.34896 700.63672 257.01562 C 667.63672 188.01563 611.9707 132.34961 542.9707 99.349609 z M 251.68164 101.95312 C 185.34831 134.95313 131.68294 189.95312 99.349609 256.95312 C 141.68294 244.28646 184.34961 233.61979 227.34961 226.95312 C 234.34961 184.95312 243.01562 143.61979 255.01562 102.95312 C 254.01563 102.95312 252.68164 101.95312 251.68164 101.95312 z M 400 266.66602 C 358.12071 266.66602 316.24214 269.29731 274.55664 274.55664 C 264.03797 357.92764 264.03797 442.07336 274.55664 525.44336 C 357.92764 535.96336 442.07336 535.96336 525.44336 525.44336 C 535.96336 442.07336 535.96336 357.92764 525.44336 274.55664 C 483.75836 269.29731 441.87929 266.66602 400 266.66602 z M 219.66602 283.72461 C 173.66602 292.05794 128.66732 303.05794 84.333984 317.72461 C 81.667318 318.39128 79.666667 318.39128 77 318.72461 C 70.666667 344.72394 66.666016 372.05664 66.666016 400.05664 C 66.666016 428.38997 70.666667 455.38932 77 481.72266 C 79.666667 482.05599 81.667318 481.72396 84.333984 482.39062 C 128.33398 497.39063 173.66602 508.05729 219.66602 516.39062 C 211.33268 439.05729 211.33268 361.05728 219.66602 283.72461 z M 580.33984 283.72461 C 589.00651 361.05728 589.00651 439.05729 580.33984 516.39062 C 626.00651 508.05729 671.34049 497.05729 715.67383 482.39062 C 718.34049 481.72396 720.33919 482.05599 723.00586 481.72266 C 729.33919 455.38932 733.33984 428.38997 733.33984 400.05664 C 733.33984 372.05664 729.33919 345.05728 723.00586 318.72461 C 720.33919 318.72461 718.34049 318.39128 715.67383 317.72461 C 671.67383 302.72461 626.00651 292.05794 580.33984 283.72461 z M 102.61914 544.66016 C 102.61914 545.66016 101.95312 546.99414 101.95312 547.99414 C 134.28646 612.66081 186.95247 665.66016 251.61914 697.66016 C 252.61914 697.66016 253.95312 696.99414 254.95312 696.99414 C 242.95312 656.32747 234.28646 614.66016 226.95312 572.66016 C 185.28646 565.66016 143.28581 556.66016 102.61914 544.66016 z M 697.30273 544.66016 C 656.63607 556.66016 615.30273 565.66016 573.30273 572.66016 C 566.30273 615.66016 555.63737 658.32682 542.9707 700.66016 C 609.9707 668.32682 664.9707 614.65951 697.9707 548.32617 C 697.9707 547.32617 696.9694 545.99349 697.30273 544.66016 z M 283.72461 580.33984 C 292.05794 626.33984 303.05794 671.34049 317.72461 715.67383 C 318.39128 718.34049 318.05729 720.33919 318.39062 723.00586 C 344.72329 729.33919 371.72331 733.33984 400.05664 733.33984 C 428.05664 733.33984 455.39062 729.33919 481.39062 723.00586 C 481.72396 720.33919 481.72396 718.34049 482.39062 715.67383 C 497.39063 671.67383 508.05729 626.33984 516.39062 580.33984 C 478.05729 584.67318 439.05664 587.67383 400.05664 587.67383 C 361.05664 587.67383 322.39128 584.67318 283.72461 580.33984 z "
     transform="scale(0.03)" />
</svg>
