<?xml version="1.0" encoding="UTF-8" standalone="no"?>
<!-- Uploaded to: SVG Repo, www.svgrepo.com, Generator: SVG Repo Mixer Tools -->

<svg
   width="800px"
   height="800px"
   viewBox="0 0 24 24"
   fill="none"
   version="1.1"
   id="svg22"
   sodipodi:docname="global-edit-svgrepo-com.svg"
   inkscape:version="1.1.1 (3bf5ae0d25, 2021-09-20)"
   xmlns:inkscape="http://www.inkscape.org/namespaces/inkscape"
   xmlns:sodipodi="http://sodipodi.sourceforge.net/DTD/sodipodi-0.dtd"
   xmlns="http://www.w3.org/2000/svg"
   xmlns:svg="http://www.w3.org/2000/svg">
  <defs
     id="defs26" />
  <sodipodi:namedview
     id="namedview24"
     pagecolor="#505050"
     bordercolor="#eeeeee"
     borderopacity="1"
     inkscape:pageshadow="0"
     inkscape:pageopacity="0"
     inkscape:pagecheckerboard="0"
     showgrid="false"
     inkscape:zoom="1.0175"
     inkscape:cx="341.03194"
     inkscape:cy="363.63636"
     inkscape:window-width="2560"
     inkscape:window-height="1494"
     inkscape:window-x="-11"
     inkscape:window-y="-11"
     inkscape:window-maximized="1"
     inkscape:current-layer="svg22" />
  <path
     id="path2"
     style="fill:#ffffff;stroke-width:33.3333"
     d="M 349.99023 33.333984 C 322.9899 33.333984 297.32227 37.000651 272.32227 43.333984 C 271.98893 45.667318 272.32292 47.667318 271.65625 50.333984 C 257.65625 92.333984 247.32227 135.33268 239.32227 178.66602 C 312.98893 170.66602 386.98958 170.66602 460.65625 178.66602 C 452.65625 135.33268 442.65755 92 428.32422 50 C 427.65755 47.666667 427.65755 45.666667 427.32422 43 C 402.65755 37 376.6569 33.333984 349.99023 33.333984 z M 486.00391 64.712891 C 498.00391 104.37956 508.00326 145.04622 514.66992 185.71289 C 555.33659 192.37956 596.00326 202.04753 635.66992 214.38086 C 604.33659 148.71419 551.33724 95.712891 486.00391 64.712891 z M 208.65625 67.318359 C 145.98958 98.318359 94.988932 150.65169 64.322266 214.31836 C 104.32227 202.31836 144.98958 192.31706 185.65625 185.65039 C 192.32292 145.98372 200.6569 106.65104 211.99023 67.984375 C 210.99023 67.984375 209.65625 67.318359 208.65625 67.318359 z M 350.0293 224.21875 C 310.48771 224.21875 270.98763 226.71875 231.6543 231.71875 C 221.6543 310.38542 221.6543 389.7207 231.6543 468.7207 C 310.32096 478.7207 389.6543 478.7207 468.6543 468.7207 C 478.6543 390.05404 478.6543 310.71875 468.6543 231.71875 C 429.1543 226.71875 389.57088 224.21875 350.0293 224.21875 z M 178.66602 239.32227 C 134.99935 247.32227 92.333333 257.65625 50 271.65625 C 47.666667 272.32292 45.667318 272.32292 43.333984 272.65625 C 37.000651 297.32292 33.333984 323.32323 33.333984 349.99023 C 33.333984 376.99023 37.000651 402.65625 43.333984 427.65625 C 45.667318 427.98958 47.667318 427.65755 50.333984 428.32422 C 92.333984 442.32422 135.33333 452.65625 179 460.65625 C 170.66667 386.98958 170.66602 312.98893 178.66602 239.32227 z M 521.0293 239.32227 C 529.36263 312.98893 529.36263 386.99089 521.0293 460.32422 C 564.36263 452.32422 607.69727 442.32357 649.69727 427.99023 C 652.0306 427.32357 654.0306 427.65755 656.69727 427.32422 C 662.69727 402.32422 666.69727 376.65625 666.69727 349.65625 C 666.69727 323.32258 663.0306 297.65625 656.69727 272.65625 C 654.36393 272.65625 652.36393 272.32292 649.69727 271.65625 C 607.69727 257.65625 564.36263 247.32227 521.0293 239.32227 z M 667.55664 466.66797 C 651.69326 466.67429 637.4707 475.91211 624.3457 489.03711 L 486.01367 627.36914 C 480.68034 632.70247 475.67904 643.03581 474.3457 650.36914 L 466.67969 703.36914 C 464.01302 722.36914 477.3457 736.03711 496.3457 733.03711 L 549.3457 725.36914 C 556.67904 724.36914 567.01237 719.03646 572.3457 713.70312 L 710.67969 575.36914 C 734.34635 551.70247 745.67969 523.70313 710.67969 488.70312 C 694.97135 472.99479 680.70058 466.66273 667.55664 466.66797 z M 67.658203 487.63086 C 67.658203 488.63086 66.992188 489.96289 66.992188 490.96289 C 97.658854 552.29622 147.65885 602.62956 208.99219 632.96289 C 209.99219 632.96289 211.32617 632.29687 212.32617 632.29688 C 200.99284 593.63021 192.32552 553.96354 185.99219 514.29688 C 145.99219 507.63021 106.32487 498.96419 67.658203 487.63086 z M 460.65625 520.96289 C 423.98958 524.96289 386.99023 527.96289 349.99023 527.96289 C 312.9899 527.96289 275.98893 525.29687 239.32227 521.29688 C 247.32227 564.96354 257.32292 607.96289 271.65625 649.96289 C 272.32292 652.29622 271.98893 654.29622 272.32227 656.96289 C 297.32227 662.96289 322.9899 666.63086 349.99023 666.63086 C 376.6569 666.63086 402.65755 662.96419 427.32422 656.63086 C 427.65755 654.29753 427.65755 652.29753 428.32422 649.63086 C 442.32422 607.63086 452.65625 564.62956 460.65625 520.96289 z "
     transform="scale(0.03)" />
</svg>
