<?xml version="1.0" encoding="UTF-8" standalone="no"?>
<!-- Uploaded to: SVG Repo, www.svgrepo.com, Generator: SVG Repo Mixer Tools -->

<svg
   width="800px"
   height="800px"
   viewBox="0 0 24 24"
   fill="none"
   version="1.1"
   id="svg6"
   sodipodi:docname="medal-svgrepo-com.svg"
   inkscape:version="1.1.1 (3bf5ae0d25, 2021-09-20)"
   xmlns:inkscape="http://www.inkscape.org/namespaces/inkscape"
   xmlns:sodipodi="http://sodipodi.sourceforge.net/DTD/sodipodi-0.dtd"
   xmlns="http://www.w3.org/2000/svg"
   xmlns:svg="http://www.w3.org/2000/svg">
  <defs
     id="defs10" />
  <sodipodi:namedview
     id="namedview8"
     pagecolor="#505050"
     bordercolor="#eeeeee"
     borderopacity="1"
     inkscape:pageshadow="0"
     inkscape:pageopacity="0"
     inkscape:pagecheckerboard="0"
     showgrid="false"
     inkscape:zoom="1.0175"
     inkscape:cx="400"
     inkscape:cy="400"
     inkscape:window-width="2560"
     inkscape:window-height="1494"
     inkscape:window-x="-11"
     inkscape:window-y="-11"
     inkscape:window-maximized="1"
     inkscape:current-layer="svg6" />
  <path
     d="M12 15C15.7279 15 18.75 12.0899 18.75 8.5C18.75 4.91015 15.7279 2 12 2C8.27208 2 5.25 4.91015 5.25 8.5C5.25 12.0899 8.27208 15 12 15Z"
     fill="#292D32"
     id="path2"
     style="fill:#ffffff" />
  <path
     d="M15.79 15.6091C16.12 15.4391 16.5 15.6891 16.5 16.0591V20.9091C16.5 21.8091 15.87 22.2491 15.09 21.8791L12.41 20.6091C12.18 20.5091 11.82 20.5091 11.59 20.6091L8.91 21.8791C8.13 22.2391 7.5 21.7991 7.5 20.8991L7.52 16.0591C7.52 15.6891 7.91 15.4491 8.23 15.6091C9.36 16.1791 10.64 16.4991 12 16.4991C13.36 16.4991 14.65 16.1791 15.79 15.6091Z"
     fill="#292D32"
     id="path4"
     style="fill:#ffffff" />
</svg>
