<?xml version="1.0" encoding="UTF-8" standalone="no"?>
<!-- Uploaded to: SVG Repo, www.svgrepo.com, Generator: SVG Repo Mixer Tools -->

<svg
   width="800px"
   height="800px"
   viewBox="0 0 24 24"
   fill="none"
   version="1.1"
   id="svg4"
   sodipodi:docname="menu-2-svgrepo-com.svg"
   inkscape:version="1.1.1 (3bf5ae0d25, 2021-09-20)"
   xmlns:inkscape="http://www.inkscape.org/namespaces/inkscape"
   xmlns:sodipodi="http://sodipodi.sourceforge.net/DTD/sodipodi-0.dtd"
   xmlns="http://www.w3.org/2000/svg"
   xmlns:svg="http://www.w3.org/2000/svg">
  <defs
     id="defs8" />
  <sodipodi:namedview
     id="namedview6"
     pagecolor="#505050"
     bordercolor="#eeeeee"
     borderopacity="1"
     inkscape:pageshadow="0"
     inkscape:pageopacity="0"
     inkscape:pagecheckerboard="0"
     showgrid="false"
     inkscape:zoom="1.0175"
     inkscape:cx="400"
     inkscape:cy="400"
     inkscape:window-width="2560"
     inkscape:window-height="1494"
     inkscape:window-x="-11"
     inkscape:window-y="-11"
     inkscape:window-maximized="1"
     inkscape:current-layer="svg4" />
  <path
     id="rect865"
     style="fill:#ffffff;stroke-width:0.0879438;stroke-linecap:square;stroke-linejoin:round"
     d="m 3.4852123,3.0592082 c -0.6982371,0 -1.2772694,0.5789376 -1.2772694,1.2771742 0,0.6982371 0.5790323,1.2772699 1.2772694,1.2772699 H 20.515315 c 0.698236,0 1.27727,-0.5790328 1.27727,-1.2772699 0,-0.6982366 -0.579034,-1.2771742 -1.27727,-1.2771742 z m 0,7.6635228 c -0.6982371,0 -1.2772694,0.579032 -1.2772694,1.277269 0,0.698237 0.5790323,1.277269 1.2772694,1.277269 H 20.515315 c 0.698236,0 1.27727,-0.579032 1.27727,-1.277269 0,-0.698237 -0.579034,-1.277269 -1.27727,-1.277269 z m 0,7.663617 c -0.6982371,0 -1.2772694,0.579033 -1.2772694,1.27727 0,0.698237 0.5790323,1.277174 1.2772694,1.277174 H 20.515315 c 0.698236,0 1.27727,-0.578936 1.27727,-1.277174 0,-0.698237 -0.579034,-1.27727 -1.27727,-1.27727 z"
     sodipodi:nodetypes="sssssssssssssssssssss" />
</svg>
