<?xml version="1.0" encoding="UTF-8" standalone="no"?>
<!-- Uploaded to: SVG Repo, www.svgrepo.com, Generator: SVG Repo Mixer Tools -->

<svg
   width="800px"
   height="800px"
   viewBox="0 0 24 24"
   fill="none"
   version="1.1"
   id="svg4"
   sodipodi:docname="message-programming-svgrepo-com.svg"
   inkscape:version="1.1.1 (3bf5ae0d25, 2021-09-20)"
   xmlns:inkscape="http://www.inkscape.org/namespaces/inkscape"
   xmlns:sodipodi="http://sodipodi.sourceforge.net/DTD/sodipodi-0.dtd"
   xmlns="http://www.w3.org/2000/svg"
   xmlns:svg="http://www.w3.org/2000/svg">
  <defs
     id="defs8" />
  <sodipodi:namedview
     id="namedview6"
     pagecolor="#505050"
     bordercolor="#eeeeee"
     borderopacity="1"
     inkscape:pageshadow="0"
     inkscape:pageopacity="0"
     inkscape:pagecheckerboard="0"
     showgrid="false"
     inkscape:zoom="1.0175"
     inkscape:cx="387.22359"
     inkscape:cy="384.27518"
     inkscape:window-width="2560"
     inkscape:window-height="1494"
     inkscape:window-x="-11"
     inkscape:window-y="-11"
     inkscape:window-maximized="1"
     inkscape:current-layer="svg4" />
  <path
     d="M16 1.96875H8C4 1.96875 2 3.96875 2 7.96875V12.9688C2 17.9688 4 18.9688 8 18.9688H8.5C8.78 18.9688 9.14 19.1488 9.3 19.3688L10.8 21.3688C11.46 22.2488 12.54 22.2488 13.2 21.3688L14.7 19.3688C14.89 19.1188 15.19 18.9688 15.5 18.9688H16C20 18.9688 22 16.9688 22 12.9688V7.96875C22 3.96875 20 1.96875 16 1.96875ZM8.53 12.1687C8.82 12.4587 8.82 12.9387 8.53 13.2287C8.38 13.3787 8.19 13.4487 8 13.4487C7.81 13.4487 7.62 13.3787 7.47 13.2287L5.47 11.2287C5.18 10.9387 5.18 10.4587 5.47 10.1687L7.47 8.16875C7.76 7.87875 8.24 7.87875 8.53 8.16875C8.82 8.45875 8.82 8.93875 8.53 9.22875L7.06 10.6987L8.53 12.1687ZM13.69 8.65875L11.69 13.3287C11.57 13.6087 11.29 13.7787 11 13.7787C10.9 13.7787 10.8 13.7587 10.7 13.7188C10.32 13.5588 10.14 13.1187 10.31 12.7287L12.31 8.05875C12.47 7.67875 12.91 7.49875 13.3 7.66875C13.68 7.83875 13.85 8.27875 13.69 8.65875ZM18.53 11.2287L16.53 13.2287C16.38 13.3787 16.19 13.4487 16 13.4487C15.81 13.4487 15.62 13.3787 15.47 13.2287C15.18 12.9387 15.18 12.4587 15.47 12.1687L16.94 10.6987L15.47 9.22875C15.18 8.93875 15.18 8.45875 15.47 8.16875C15.76 7.87875 16.24 7.87875 16.53 8.16875L18.53 10.1687C18.82 10.4587 18.82 10.9387 18.53 11.2287Z"
     fill="#292D32"
     id="path2"
     style="fill:#ffffff" />
</svg>
