<?xml version="1.0" encoding="UTF-8" standalone="no"?>
<!-- Uploaded to: SVG Repo, www.svgrepo.com, Generator: SVG Repo Mixer Tools -->

<svg
   width="800px"
   height="800px"
   viewBox="0 0 24 24"
   fill="none"
   version="1.1"
   id="svg6"
   sodipodi:docname="path-svgrepo-com.svg"
   inkscape:version="1.1.1 (3bf5ae0d25, 2021-09-20)"
   xmlns:inkscape="http://www.inkscape.org/namespaces/inkscape"
   xmlns:sodipodi="http://sodipodi.sourceforge.net/DTD/sodipodi-0.dtd"
   xmlns="http://www.w3.org/2000/svg"
   xmlns:svg="http://www.w3.org/2000/svg">
  <defs
     id="defs10" />
  <sodipodi:namedview
     id="namedview8"
     pagecolor="#505050"
     bordercolor="#eeeeee"
     borderopacity="1"
     inkscape:pageshadow="0"
     inkscape:pageopacity="0"
     inkscape:pagecheckerboard="0"
     showgrid="false"
     inkscape:zoom="1.0175"
     inkscape:cx="400"
     inkscape:cy="400"
     inkscape:window-width="2560"
     inkscape:window-height="1494"
     inkscape:window-x="-11"
     inkscape:window-y="-11"
     inkscape:window-maximized="1"
     inkscape:current-layer="svg6" />
  <path
     d="M20.0199 10.7004L17.8999 12.0404C17.4999 12.2904 16.9899 12.2304 16.6599 11.9004L12.1299 7.37041C11.7999 7.04041 11.7399 6.53041 11.9899 6.13041L13.3299 4.01041C14.1499 2.72041 15.7899 2.66041 16.9999 3.86041L20.1799 7.04041C21.2999 8.17041 21.2299 9.93041 20.0199 10.7004Z"
     fill="#292D32"
     id="path2"
     style="fill:#ffffff" />
  <path
     d="M14.7106 19.9498L5.99064 20.9698C5.91296 20.9801 5.83629 20.9874 5.76069 20.9919C5.07556 21.0323 4.90569 20.2247 5.39099 19.7394L7.98064 17.1498C8.30064 16.8398 8.30064 16.3498 7.98064 16.0398C7.68064 15.7298 7.19064 15.7298 6.87064 16.0398L4.28099 18.6294C3.79569 19.1147 2.99556 18.9441 3.03197 18.2588C3.03579 18.1868 3.04199 18.1138 3.05064 18.0398L4.08064 9.31975C4.34064 7.13975 5.14064 6.41975 7.44064 6.55975L8.94064 6.64975C9.43064 6.67975 9.89064 6.88975 10.2406 7.23975L16.7906 13.7898C17.1406 14.1398 17.3506 14.5998 17.3706 15.0898L17.4606 16.5898C17.6906 18.8998 16.9006 19.6998 14.7106 19.9498Z"
     fill="#292D32"
     id="path4"
     style="fill:#ffffff" />
</svg>
