<?xml version="1.0" encoding="UTF-8" standalone="no"?>
<!-- Uploaded to: SVG Repo, www.svgrepo.com, Generator: SVG Repo Mixer Tools -->

<svg
   width="800px"
   height="800px"
   viewBox="0 0 24 24"
   fill="none"
   version="1.1"
   id="svg10"
   sodipodi:docname="shopping-cart-svgrepo-com.svg"
   inkscape:version="1.1.1 (3bf5ae0d25, 2021-09-20)"
   xmlns:inkscape="http://www.inkscape.org/namespaces/inkscape"
   xmlns:sodipodi="http://sodipodi.sourceforge.net/DTD/sodipodi-0.dtd"
   xmlns="http://www.w3.org/2000/svg"
   xmlns:svg="http://www.w3.org/2000/svg">
  <defs
     id="defs14" />
  <sodipodi:namedview
     id="namedview12"
     pagecolor="#505050"
     bordercolor="#eeeeee"
     borderopacity="1"
     inkscape:pageshadow="0"
     inkscape:pageopacity="0"
     inkscape:pagecheckerboard="0"
     showgrid="false"
     inkscape:zoom="1.0175"
     inkscape:cx="400"
     inkscape:cy="400"
     inkscape:window-width="2560"
     inkscape:window-height="1494"
     inkscape:window-x="-11"
     inkscape:window-y="-11"
     inkscape:window-maximized="1"
     inkscape:current-layer="svg10" />
  <path
     d="M16.25 22.5C17.2165 22.5 18 21.7165 18 20.75C18 19.7835 17.2165 19 16.25 19C15.2835 19 14.5 19.7835 14.5 20.75C14.5 21.7165 15.2835 22.5 16.25 22.5Z"
     fill="#292D32"
     id="path2"
     style="fill:#ffffff" />
  <path
     d="M8.25 22.5C9.2165 22.5 10 21.7165 10 20.75C10 19.7835 9.2165 19 8.25 19C7.2835 19 6.5 19.7835 6.5 20.75C6.5 21.7165 7.2835 22.5 8.25 22.5Z"
     fill="#292D32"
     id="path4"
     style="fill:#ffffff" />
  <path
     d="M4.84 3.94L4.64 6.39C4.6 6.86 4.97 7.25 5.44 7.25H20.75C21.17 7.25 21.52 6.93 21.55 6.51C21.68 4.74 20.33 3.3 18.56 3.3H6.27C6.17 2.86 5.97 2.44 5.66 2.09C5.16 1.56 4.46 1.25 3.74 1.25H2C1.59 1.25 1.25 1.59 1.25 2C1.25 2.41 1.59 2.75 2 2.75H3.74C4.05 2.75 4.34 2.88 4.55 3.1C4.76 3.33 4.86 3.63 4.84 3.94Z"
     fill="#292D32"
     id="path6"
     style="fill:#ffffff" />
  <path
     d="M20.5101 8.75H5.17005C4.75005 8.75 4.41005 9.07 4.37005 9.48L4.01005 13.83C3.87005 15.54 5.21005 17 6.92005 17H18.0401C19.5401 17 20.8601 15.77 20.9701 14.27L21.3001 9.6C21.3401 9.14 20.9801 8.75 20.5101 8.75Z"
     fill="#292D32"
     id="path8"
     style="fill:#ffffff" />
</svg>
