<?xml version="1.0" encoding="UTF-8" standalone="no"?>
<!-- Uploaded to: SVG Repo, www.svgrepo.com, Generator: SVG Repo Mixer Tools -->

<svg
   width="800px"
   height="800px"
   viewBox="0 0 24 24"
   fill="none"
   version="1.1"
   id="svg4"
   sodipodi:docname="simcard-svgrepo-com.svg"
   inkscape:version="1.1.1 (3bf5ae0d25, 2021-09-20)"
   xmlns:inkscape="http://www.inkscape.org/namespaces/inkscape"
   xmlns:sodipodi="http://sodipodi.sourceforge.net/DTD/sodipodi-0.dtd"
   xmlns="http://www.w3.org/2000/svg"
   xmlns:svg="http://www.w3.org/2000/svg">
  <defs
     id="defs8" />
  <sodipodi:namedview
     id="namedview6"
     pagecolor="#505050"
     bordercolor="#eeeeee"
     borderopacity="1"
     inkscape:pageshadow="0"
     inkscape:pageopacity="0"
     inkscape:pagecheckerboard="0"
     showgrid="false"
     inkscape:zoom="1.0175"
     inkscape:cx="346.92875"
     inkscape:cy="369.53317"
     inkscape:window-width="2560"
     inkscape:window-height="1494"
     inkscape:window-x="-11"
     inkscape:window-y="-11"
     inkscape:window-maximized="1"
     inkscape:current-layer="svg4" />
  <path
     d="M19.54 6.54L16.47 3.47C15.53 2.53 14.26 2 12.93 2H8C5 2 3 4 3 7V17C3 20 5 22 8 22H16C19 22 21 20 21 17V10.07C21 8.74 20.47 7.47 19.54 6.54ZM10.03 17.47C10.32 17.76 10.32 18.24 10.03 18.53C9.88 18.68 9.69 18.75 9.5 18.75C9.31 18.75 9.12 18.68 8.97 18.53L6.97 16.53C6.68 16.24 6.68 15.76 6.97 15.47L8.97 13.47C9.26 13.18 9.74 13.18 10.03 13.47C10.32 13.76 10.32 14.24 10.03 14.53L8.56 16L10.03 17.47ZM17.03 16.53L15.03 18.53C14.88 18.68 14.69 18.75 14.5 18.75C14.31 18.75 14.12 18.68 13.97 18.53C13.68 18.24 13.68 17.76 13.97 17.47L15.44 16L13.97 14.53C13.68 14.24 13.68 13.76 13.97 13.47C14.26 13.18 14.74 13.18 15.03 13.47L17.03 15.47C17.32 15.76 17.32 16.24 17.03 16.53Z"
     fill="#292D32"
     id="path2"
     style="fill:#ffffff" />
</svg>
