<?xml version="1.0" encoding="UTF-8" standalone="no"?><!DOCTYPE svg PUBLIC "-//W3C//DTD SVG 1.1//EN" "http://www.w3.org/Graphics/SVG/1.1/DTD/svg11.dtd"><svg width="100%" height="100%" viewBox="0 0 459 200" version="1.1" xmlns="http://www.w3.org/2000/svg" xmlns:xlink="http://www.w3.org/1999/xlink" xml:space="preserve" xmlns:serif="http://www.serif.com/" style="fill-rule:evenodd;clip-rule:evenodd;stroke-linejoin:round;stroke-miterlimit:2;"><g><rect x="195.98" y="49.494" width="210.252" height="101.013" style="fill:#ff0101;"/><path d="M233.315,116.156l17.922,0l-0,14.593l-36.513,0l0,-61.498l18.591,-0l0,46.905Zm42.375,-46.905l-0,61.498l-18.591,0l-0,-61.498l18.591,-0Zm68.084,-0l-19.931,61.498l-24.035,0l-19.931,-61.498l19.764,-0l12.226,42.301l12.143,-42.301l19.764,-0Zm22.778,15.374l-0,7.557l18.423,0l0,14.506l-18.423,0l-0,8.686l20.936,0l-0,15.375l-39.527,0l-0,-61.498l39.527,-0l-0,15.374l-20.936,0Z" style="fill:#ebebeb;"/></g></svg>