<?xml version="1.0" encoding="UTF-8" standalone="no"?>
<!DOCTYPE svg PUBLIC "-//W3C//DTD SVG 1.1//EN" "http://www.w3.org/Graphics/SVG/1.1/DTD/svg11.dtd">
<svg width="100%" height="100%" viewBox="0 0 1081 1081" version="1.1" xmlns="http://www.w3.org/2000/svg" xmlns:xlink="http://www.w3.org/1999/xlink" xml:space="preserve" xmlns:serif="http://www.serif.com/" style="fill-rule:evenodd;clip-rule:evenodd;stroke-linejoin:round;stroke-miterlimit:2;">
    <g transform="matrix(1,0,0,1,-2416,-1231)">
        <g id="S" transform="matrix(1,0,0,1,-1123.32,1231.07)">
            <rect x="3540" y="0" width="1080" height="1080" style="fill:none;"/>
            <g transform="matrix(0.499982,0,0,0.499982,2800.04,270.008)">
                <path d="M2475.31,540C2465.8,529.382 2460.01,515.361 2460.01,500C2460.01,466.885 2486.9,440 2520.01,440L2610,440C2621.03,440.007 2630,448.966 2630,460C2630,471.034 2621.05,479.993 2610.01,480L2610,480L2520.01,480C2508.97,480 2500.01,488.962 2500.01,500C2500.01,511.038 2508.97,520 2520.01,520C2537.77,520 2553.73,527.728 2564.72,540C2574.23,550.618 2580.01,564.639 2580.01,580C2580.01,613.115 2553.13,640 2520.01,640L2480.01,640C2468.97,640 2460.01,631.038 2460.01,620C2460.01,614.484 2462.25,609.486 2465.87,605.867C2469.49,602.243 2474.49,600 2480.01,600L2520.01,600C2531.05,600 2540.01,591.038 2540.01,580C2540.01,568.962 2531.05,560 2520.01,560C2502.26,560 2486.3,552.272 2475.31,540Z" style="fill:white;"/>
            </g>
        </g>
    </g>
</svg>
