<?xml version="1.0" encoding="UTF-8" standalone="no"?>
<!DOCTYPE svg PUBLIC "-//W3C//DTD SVG 1.1//EN" "http://www.w3.org/Graphics/SVG/1.1/DTD/svg11.dtd">
<svg width="100%" height="100%" viewBox="0 0 1080 1081" version="1.1" xmlns="http://www.w3.org/2000/svg" xmlns:xlink="http://www.w3.org/1999/xlink" xml:space="preserve" xmlns:serif="http://www.serif.com/" style="fill-rule:evenodd;clip-rule:evenodd;stroke-linejoin:round;stroke-miterlimit:2;">
    <g transform="matrix(1,0,0,1,0,-2462)">
        <g id="Saisoj" transform="matrix(1,0,0,1,-3540,2462.14)">
            <rect x="3540" y="0" width="1080" height="1080" style="fill:none;"/>
            <g transform="matrix(0.499982,0,0,0.499982,2632.79,270.01)">
                <path d="M2939.99,480L2910,480C2898.96,480 2890,488.962 2890,500C2890,511.038 2898.96,520 2910,520L2939.99,520L2940.01,520C2948.72,520 2956.99,521.858 2964.46,525.198C2985.4,534.565 3000.01,555.59 3000.01,580C3000.01,613.115 2973.13,640 2940.01,640L2910,640C2898.96,640 2890,631.038 2890,620C2890,618.033 2890.28,616.132 2890.82,614.336C2893.26,606.052 2900.93,600 2910,600L2940.01,600C2951.05,600 2960.01,591.038 2960.01,580C2960.01,568.962 2951.05,560 2940.01,560L2939.99,560L2910,560C2901.3,560 2893.02,558.142 2885.55,554.802C2864.61,545.436 2850,524.41 2850,500C2850,470.174 2871.81,445.402 2900.34,440.775C2903.48,440.265 2906.71,440 2910,440L2940.03,440C2951.05,440.021 2959.99,448.975 2959.99,460C2959.99,461.958 2959.7,463.85 2959.18,465.639C2956.75,473.924 2949.09,479.983 2940.03,480L2939.99,480ZM3038.93,453.61C3049.28,445.107 3062.53,440 3076.96,440L3136.96,440C3151.39,440 3164.64,445.107 3175,453.61C3188.41,464.617 3196.96,481.317 3196.96,500C3196.96,504.24 3196.52,508.378 3195.68,512.371C3194.42,518.372 3162.28,604.125 3159.28,609.439C3151.74,622.802 3139.22,632.99 3124.24,637.482C3118.78,639.12 3112.99,640 3107,640C3100.99,640 3095.18,639.115 3089.71,637.467C3074.61,632.923 3062.01,622.584 3054.49,609.038C3051.68,603.963 3019.5,518.372 3018.24,512.371C3017.4,508.378 3016.96,504.24 3016.96,500C3016.96,481.317 3025.52,464.617 3038.93,453.61ZM3057.06,501.96C3057.41,505.531 3088.72,588.775 3090.63,591.489C3094.25,596.635 3100.24,600 3107,600C3113.67,600 3119.58,596.73 3123.21,591.708C3125.26,588.88 3156.52,505.531 3156.87,501.959C3156.93,501.315 3156.96,500.661 3156.96,500C3156.96,488.962 3148,480 3136.96,480L3076.96,480C3065.92,480 3056.96,488.962 3056.96,500C3056.96,500.661 3056.99,501.315 3057.06,501.96ZM3269.03,440C3302.14,440 3329.03,466.885 3329.03,500L3329.03,580C3329.03,613.115 3302.14,640 3269.03,640C3235.91,640 3209.03,613.115 3209.03,580C3209.03,568.962 3217.99,560 3229.03,560C3239.65,560 3248.35,568.3 3248.99,578.764C3248.96,579.173 3248.96,580.828 3248.99,581.236C3249.63,591.7 3258.33,600 3268.95,600C3279.99,600 3288.95,591.038 3288.95,580L3288.95,500C3288.95,488.987 3280.03,480.041 3269.03,480L3268.95,480C3257.95,479.959 3249.03,471.013 3249.03,460C3249.03,448.962 3257.99,440 3269.03,440ZM2475.31,540C2465.8,529.382 2460.01,515.361 2460.01,500C2460.01,466.885 2486.9,440 2520.01,440L2610,440C2621.03,440.007 2630,448.966 2630,460C2630,471.034 2621.05,479.993 2610.01,480L2520.01,480C2508.97,480 2500.01,488.962 2500.01,500C2500.01,511.038 2508.97,520 2520.01,520C2537.77,520 2553.73,527.728 2564.72,540C2574.23,550.618 2580.01,564.639 2580.01,580C2580.01,613.115 2553.13,640 2520.01,640L2480.01,640C2468.97,640 2460.01,631.038 2460.01,620C2460.01,614.484 2462.25,609.486 2465.87,605.867C2469.49,602.243 2474.49,600 2480.01,600L2520.01,600C2531.05,600 2540.01,591.038 2540.01,580C2540.01,568.962 2531.05,560 2520.01,560C2502.26,560 2486.3,552.272 2475.31,540ZM2751.27,467.023C2747.4,456.687 2752.64,445.149 2762.98,441.274C2773.31,437.398 2784.85,442.642 2788.73,452.978L2848.73,612.978C2852.6,623.313 2847.36,634.851 2837.02,638.727C2826.69,642.603 2815.15,637.358 2811.27,627.023L2751.27,467.023ZM2648.73,627.023C2644.85,637.358 2633.31,642.603 2622.98,638.727C2612.64,634.851 2607.4,623.313 2611.27,612.978L2671.27,452.978C2674.2,445.172 2681.66,440 2690,440C2698.34,440 2705.8,445.172 2708.73,452.978L2768.73,612.978C2772.6,623.313 2767.36,634.851 2757.02,638.727C2746.69,642.603 2735.15,637.358 2731.27,627.023L2690,516.96L2648.73,627.023Z" style="fill:white;"/>
            </g>
        </g>
    </g>
</svg>
