<?xml version="1.0" encoding="UTF-8" standalone="no"?>
<!DOCTYPE svg PUBLIC "-//W3C//DTD SVG 1.1//EN" "http://www.w3.org/Graphics/SVG/1.1/DTD/svg11.dtd">
<svg width="100%" height="100%" viewBox="0 0 1081 1081" version="1.1" xmlns="http://www.w3.org/2000/svg" xmlns:xlink="http://www.w3.org/1999/xlink" xml:space="preserve" xmlns:serif="http://www.serif.com/" style="fill-rule:evenodd;clip-rule:evenodd;stroke-linejoin:round;stroke-miterlimit:2;">
    <g transform="matrix(1,0,0,1,-1208,-2462)">
        <g id="SaisojArts" transform="matrix(1,0,0,1,-2331.66,2462.14)">
            <rect x="3540" y="0" width="1080" height="1080" style="fill:none;"/>
            <g transform="matrix(0.5,0,0,-0.5,2738.76,1096.79)">
                <path d="M2708.02,983.577L2821.05,983.577C2832.07,983.549 2841,974.598 2841,963.577C2841,952.556 2832.07,943.605 2821.05,943.577L2781,943.577L2781,803.577C2781,792.539 2772.04,783.577 2761,783.577C2749.96,783.577 2741,792.539 2741,803.577L2741,943.577L2708.02,943.577C2696.99,943.593 2688.05,952.549 2688.05,963.577C2688.05,974.605 2696.99,983.561 2708.02,983.577ZM2550.62,894.336C2547.31,903.846 2543.02,912.963 2543.02,923.577C2543.02,956.692 2569.91,983.577 2603.02,983.577C2636.14,983.577 2663.02,956.692 2663.02,923.577C2663.02,907.34 2656.56,892.601 2646.07,881.795L2680.22,862.23C2685.35,860.24 2689.64,856.158 2691.72,850.608L2706.72,810.599C2710.6,800.264 2705.35,788.726 2695.02,784.85C2684.68,780.975 2673.15,786.219 2669.27,796.554L2656.92,829.477L2606.93,858.116L2624.75,810.599C2628.62,800.264 2623.38,788.726 2613.04,784.85C2602.71,780.975 2591.17,786.219 2587.29,796.554C2587.29,796.554 2558,873.166 2550.62,894.336ZM2602.7,943.584C2591.67,943.584 2582.7,934.622 2582.7,923.584C2582.7,912.546 2591.67,903.584 2602.7,903.584C2613.74,903.584 2622.7,912.546 2622.7,923.584C2622.7,934.622 2613.74,943.584 2602.7,943.584ZM2424.74,796.555C2420.87,786.219 2409.33,780.974 2398.99,784.85C2388.65,788.726 2383.41,800.265 2387.29,810.601L2447.29,970.609C2450.22,978.416 2457.68,983.588 2466.02,983.588C2474.35,983.588 2481.82,978.416 2484.74,970.609L2544.75,810.601C2548.62,800.265 2543.38,788.726 2533.04,784.85C2522.71,780.974 2511.17,786.219 2507.29,796.555L2466.02,906.623L2424.74,796.555ZM2840.99,823.577L2930.99,823.577C2942.03,823.577 2950.99,832.539 2950.99,843.577C2950.99,854.615 2942.03,863.577 2930.99,863.577C2913.23,863.577 2897.27,871.305 2886.28,883.577C2876.77,894.195 2870.99,908.216 2870.99,923.577C2870.99,956.692 2897.87,983.577 2930.99,983.577L2970.99,983.577C2982.03,983.577 2990.99,974.615 2990.99,963.577C2990.99,958.061 2988.75,953.063 2985.13,949.443C2981.51,945.82 2976.51,943.577 2970.99,943.577L2930.99,943.577C2919.95,943.577 2910.99,934.615 2910.99,923.577C2910.99,912.539 2919.95,903.577 2930.99,903.577C2948.74,903.577 2964.7,895.849 2975.7,883.577C2985.2,872.959 2990.99,858.938 2990.99,843.577C2990.99,810.462 2964.1,783.577 2930.99,783.577L2840.99,783.577C2829.96,783.584 2821,792.543 2821,803.577C2821,814.611 2829.96,823.57 2840.99,823.577ZM2779.43,1363.58L2719.46,1363.58C2697.38,1363.58 2679.46,1345.65 2679.46,1323.58C2679.46,1301.5 2697.38,1283.58 2719.46,1283.58L2779.43,1283.58L2779.49,1283.58C2796.89,1283.58 2813.44,1279.86 2828.38,1273.18C2870.27,1254.45 2899.49,1212.4 2899.49,1163.58C2899.49,1097.35 2845.72,1043.58 2779.49,1043.58L2719.46,1043.58C2697.38,1043.58 2679.46,1061.5 2679.46,1083.58C2679.46,1087.51 2680.03,1091.31 2681.09,1094.91C2685.98,1111.47 2701.32,1123.58 2719.46,1123.58L2779.49,1123.58C2801.56,1123.58 2819.49,1141.5 2819.49,1163.58C2819.49,1185.65 2801.56,1203.58 2779.49,1203.58L2779.43,1203.58L2719.46,1203.58C2702.05,1203.58 2685.5,1207.29 2670.57,1213.97C2628.68,1232.71 2599.46,1274.76 2599.46,1323.58C2599.46,1389.81 2653.23,1443.58 2719.46,1443.58L2779.43,1443.58L2779.51,1443.58C2801.55,1443.54 2819.43,1425.63 2819.43,1403.58C2819.43,1399.66 2818.87,1395.88 2817.82,1392.3C2812.95,1375.73 2797.64,1363.61 2779.51,1363.58L2779.43,1363.58ZM2977.31,1416.36C2998.02,1433.36 3024.52,1443.58 3053.39,1443.58L3173.39,1443.58C3202.25,1443.58 3228.75,1433.36 3249.46,1416.36C3276.27,1394.34 3293.39,1360.94 3293.39,1323.58C3293.39,1315.1 3292.5,1306.82 3290.83,1298.84C3288.31,1286.83 3224.03,1115.33 3218.03,1104.7C3202.93,1077.97 3177.89,1057.6 3147.95,1048.61C3137.02,1045.34 3125.44,1043.58 3113.46,1043.58C3101.44,1043.58 3089.83,1045.35 3078.88,1048.64C3048.68,1057.73 3023.47,1078.41 3008.44,1105.5C3002.81,1115.65 2938.46,1286.83 2935.94,1298.84C2934.27,1306.82 2933.39,1315.1 2933.39,1323.58C2933.39,1360.94 2950.5,1394.34 2977.31,1416.36ZM3013.58,1319.66C3014.27,1312.52 3076.91,1146.03 3080.72,1140.6C3087.96,1130.31 3099.93,1123.58 3113.46,1123.58C3126.8,1123.58 3138.62,1130.12 3145.89,1140.16C3149.98,1145.82 3212.5,1312.52 3213.2,1319.66C3213.32,1320.95 3213.39,1322.26 3213.39,1323.58C3213.39,1345.65 3195.46,1363.58 3173.39,1363.58L3053.39,1363.58C3031.31,1363.58 3013.39,1345.65 3013.39,1323.58C3013.39,1322.25 3013.45,1320.95 3013.58,1319.66ZM3437.51,1443.58C3503.74,1443.58 3557.51,1389.81 3557.51,1323.58L3557.51,1163.58C3557.51,1097.35 3503.74,1043.58 3437.51,1043.58C3371.28,1043.58 3317.51,1097.35 3317.51,1163.58C3317.51,1185.65 3335.43,1203.58 3357.51,1203.58C3378.76,1203.58 3396.16,1186.98 3397.44,1166.05C3397.39,1165.23 3397.39,1161.92 3397.44,1161.1C3398.72,1140.18 3416.11,1123.58 3437.36,1123.58C3459.44,1123.58 3477.36,1141.5 3477.36,1163.58L3477.36,1323.58C3477.36,1345.6 3459.52,1363.5 3437.51,1363.58L3437.36,1363.58C3415.35,1363.66 3397.51,1381.55 3397.51,1403.58C3397.51,1425.65 3415.43,1443.58 3437.51,1443.58ZM1850.07,1243.58C1831.06,1264.81 1819.49,1292.86 1819.49,1323.58C1819.49,1389.81 1873.26,1443.58 1939.49,1443.58L2119.46,1443.58L2119.49,1443.58C2141.55,1443.56 2159.46,1425.64 2159.46,1403.58C2159.46,1381.51 2141.55,1363.59 2119.49,1363.58L2119.46,1363.58L1939.49,1363.58C1917.41,1363.58 1899.49,1345.65 1899.49,1323.58C1899.49,1301.5 1917.41,1283.58 1939.49,1283.58C1974.99,1283.58 2006.92,1268.12 2028.9,1243.58C2047.92,1222.34 2059.49,1194.3 2059.49,1163.58C2059.49,1097.35 2005.72,1043.58 1939.49,1043.58L1859.49,1043.58C1837.41,1043.58 1819.49,1061.5 1819.49,1083.58C1819.49,1094.61 1823.96,1104.61 1831.19,1111.84C1838.44,1119.09 1848.44,1123.58 1859.49,1123.58L1939.49,1123.58C1961.56,1123.58 1979.49,1141.5 1979.49,1163.58C1979.49,1185.65 1961.56,1203.58 1939.49,1203.58C1903.98,1203.58 1872.05,1219.03 1850.07,1243.58ZM2402.01,1389.53C2394.26,1410.2 2404.74,1433.28 2425.41,1441.03C2446.09,1448.78 2469.16,1438.29 2476.91,1417.62L2596.91,1097.62C2604.66,1076.95 2594.18,1053.88 2573.51,1046.12C2552.83,1038.37 2529.76,1048.86 2522.01,1069.53L2402.01,1389.53ZM2196.91,1069.53C2189.16,1048.86 2166.09,1038.37 2145.41,1046.12C2124.74,1053.88 2114.26,1076.95 2122.01,1097.62L2242.01,1417.62C2247.86,1433.23 2262.79,1443.58 2279.46,1443.58C2296.13,1443.58 2311.06,1433.23 2316.91,1417.62L2436.91,1097.62C2444.66,1076.95 2434.18,1053.88 2413.51,1046.12C2392.83,1038.37 2369.76,1048.86 2362.01,1069.53L2279.46,1289.66L2196.91,1069.53Z" style="fill:white;"/>
            </g>
        </g>
    </g>
</svg>
