<?xml version="1.0" encoding="UTF-8" standalone="no"?>
<!DOCTYPE svg PUBLIC "-//W3C//DTD SVG 1.1//EN" "http://www.w3.org/Graphics/SVG/1.1/DTD/svg11.dtd">
<svg width="100%" height="100%" viewBox="0 0 1080 1081" version="1.1" xmlns="http://www.w3.org/2000/svg" xmlns:xlink="http://www.w3.org/1999/xlink" xml:space="preserve" xmlns:serif="http://www.serif.com/" style="fill-rule:evenodd;clip-rule:evenodd;stroke-linejoin:round;stroke-miterlimit:2;">
    <g transform="matrix(1,0,0,1,0,-2462)">
        <g id="SaisojDesigns" transform="matrix(1,0,0,1,-3540,2462.14)">
            <rect x="3540" y="0" width="1080" height="1080" style="fill:none;"/>
            <g transform="matrix(0.999973,0,0,0.999973,1188.56,-64.9848)">
                <path d="M2939.99,480L2910,480C2898.96,480 2890,488.962 2890,500C2890,511.038 2898.96,520 2910,520L2939.99,520L2940.01,520C2948.72,520 2956.99,521.858 2964.46,525.198C2985.4,534.565 3000.01,555.59 3000.01,580C3000.01,613.115 2973.13,640 2940.01,640L2910,640C2898.96,640 2890,631.038 2890,620C2890,618.033 2890.28,616.132 2890.82,614.336C2893.26,606.052 2900.93,600 2910,600L2940.01,600C2951.05,600 2960.01,591.038 2960.01,580C2960.01,568.962 2951.05,560 2940.01,560L2939.99,560L2910,560C2901.3,560 2893.02,558.142 2885.55,554.802C2864.61,545.436 2850,524.41 2850,500C2850,470.174 2871.81,445.402 2900.34,440.775C2903.48,440.265 2906.71,440 2910,440L2940.03,440C2951.05,440.021 2959.99,448.975 2959.99,460C2959.99,461.958 2959.7,463.85 2959.18,465.639C2956.75,473.924 2949.09,479.983 2940.03,480L2939.99,480ZM3038.93,453.61C3049.28,445.107 3062.53,440 3076.96,440L3136.96,440C3151.39,440 3164.64,445.107 3175,453.61C3188.41,464.617 3196.96,481.317 3196.96,500C3196.96,504.24 3196.52,508.378 3195.68,512.371C3194.42,518.372 3162.28,604.125 3159.28,609.439C3151.74,622.802 3139.22,632.99 3124.24,637.482C3118.78,639.12 3112.99,640 3107,640C3100.99,640 3095.18,639.115 3089.71,637.467C3074.61,632.923 3062.01,622.584 3054.49,609.038C3051.68,603.963 3019.5,518.372 3018.24,512.371C3017.4,508.378 3016.96,504.24 3016.96,500C3016.96,481.317 3025.52,464.617 3038.93,453.61ZM3057.06,501.96C3057.41,505.531 3088.72,588.775 3090.63,591.489C3094.25,596.635 3100.24,600 3107,600C3113.67,600 3119.58,596.73 3123.21,591.708C3125.26,588.88 3156.52,505.531 3156.87,501.959C3156.93,501.315 3156.96,500.661 3156.96,500C3156.96,488.962 3148,480 3136.96,480L3076.96,480C3065.92,480 3056.96,488.962 3056.96,500C3056.96,500.661 3056.99,501.315 3057.06,501.96ZM3269.03,440C3302.14,440 3329.03,466.885 3329.03,500L3329.03,580C3329.03,613.115 3302.14,640 3269.03,640C3235.91,640 3209.03,613.115 3209.03,580C3209.03,568.962 3217.99,560 3229.03,560C3239.65,560 3248.35,568.3 3248.99,578.764C3248.96,579.173 3248.96,580.828 3248.99,581.236C3249.63,591.7 3258.33,600 3268.95,600C3279.99,600 3288.95,591.038 3288.95,580L3288.95,500C3288.95,488.987 3280.03,480.041 3269.03,480L3268.95,480C3257.95,479.959 3249.03,471.013 3249.03,460C3249.03,448.962 3257.99,440 3269.03,440ZM2475.31,540C2465.8,529.382 2460.01,515.361 2460.01,500C2460.01,466.885 2486.9,440 2520.01,440L2610,440C2621.03,440.007 2630,448.966 2630,460C2630,471.034 2621.05,479.993 2610.01,480L2610,480L2520.01,480C2508.97,480 2500.01,488.962 2500.01,500C2500.01,511.038 2508.97,520 2520.01,520C2537.77,520 2553.73,527.728 2564.72,540C2574.23,550.618 2580.01,564.639 2580.01,580C2580.01,613.115 2553.13,640 2520.01,640L2480.01,640C2468.97,640 2460.01,631.038 2460.01,620C2460.01,614.484 2462.25,609.486 2465.87,605.867C2469.49,602.243 2474.49,600 2480.01,600L2520.01,600C2531.05,600 2540.01,591.038 2540.01,580C2540.01,568.962 2531.05,560 2520.01,560C2502.26,560 2486.3,552.272 2475.31,540ZM2751.27,467.023C2747.4,456.687 2752.64,445.149 2762.98,441.274C2773.31,437.398 2784.85,442.642 2788.73,452.978L2848.73,612.978C2852.6,623.313 2847.36,634.851 2837.02,638.727C2826.69,642.603 2815.15,637.358 2811.27,627.023L2751.27,467.023ZM2648.73,627.023C2644.85,637.358 2633.31,642.603 2622.98,638.727C2612.64,634.851 2607.4,623.313 2611.27,612.978L2671.27,452.978C2674.2,445.172 2681.66,440 2690,440C2698.34,440 2705.8,445.172 2708.73,452.978L2768.73,612.978C2772.6,623.313 2767.36,634.851 2757.02,638.727C2746.69,642.603 2735.15,637.358 2731.27,627.023L2690,516.96L2648.73,627.023ZM2734.79,670.153C2735.36,670.052 2735.94,670 2736.52,670C2736.59,670 2736.65,670.001 2736.72,670.002L2771.51,670.002C2771.52,670.002 2771.53,670.002 2771.53,670.002C2777.04,670.016 2781.51,674.491 2781.51,680.002C2781.51,684.802 2778.12,688.817 2773.61,689.781C2772.94,689.922 2772.24,689.996 2771.53,689.996L2736.56,689.996C2736.55,689.996 2736.53,689.996 2736.52,689.996C2735.3,689.992 2734.12,689.766 2733.04,689.357C2729.26,687.931 2726.56,684.276 2726.56,679.996C2726.56,675.082 2730.11,670.991 2734.79,670.153ZM2721.53,709.996L2735.95,709.996L2735.95,710.002L2756.52,710.002C2756.53,710.002 2756.53,710.002 2756.54,710.002C2762.05,710.016 2766.52,714.491 2766.52,720.002C2766.52,724.802 2763.13,728.817 2758.61,729.781C2757.95,729.922 2757.25,729.996 2756.54,729.996L2721.53,729.996C2720.3,729.996 2719.12,729.773 2718.03,729.365C2714.24,727.945 2711.53,724.284 2711.53,719.996C2711.53,714.477 2716.02,709.996 2721.53,709.996ZM2706.55,749.996L2720.95,749.996L2720.95,750.002L2741.52,750.002C2741.53,750.002 2741.54,750.002 2741.55,750.002C2747.06,750.016 2751.52,754.491 2751.52,760.002C2751.52,764.802 2748.13,768.817 2743.62,769.781C2742.95,769.922 2742.26,769.996 2741.55,769.996L2706.55,769.996L2706.52,769.996C2701.01,769.982 2696.55,765.507 2696.55,759.996C2696.55,754.486 2701.01,750.01 2706.52,749.996L2706.55,749.996ZM2781.51,770.002C2776,769.995 2771.52,765.517 2771.52,760.002C2771.52,754.483 2776,750.002 2781.52,750.002L2834.02,750.004C2839.54,750.004 2844.02,745.523 2844.02,740.004C2844.02,734.484 2839.54,730.004 2834.02,730.004L2826.52,730.004C2819.8,730.004 2813.61,727.795 2808.61,724.067C2801.27,718.595 2796.52,709.85 2796.52,700.004C2796.52,683.446 2809.96,670.004 2826.52,670.004L2826.53,670.004L2834.03,670.004C2837.55,670.004 2840.65,671.825 2842.43,674.576C2843.45,676.139 2844.03,678.003 2844.03,680.004C2844.03,685.523 2839.55,690.004 2834.03,690.004L2826.53,690.004L2826.52,690.004C2821,690.004 2816.52,694.484 2816.52,700.004C2816.52,705.523 2821,710.004 2826.52,710.004L2834.02,710.004C2840.73,710.004 2846.93,712.212 2851.93,715.94C2859.27,721.412 2864.02,730.157 2864.02,740.004C2864.02,756.561 2850.58,770.004 2834.02,770.004L2781.51,770.004L2781.51,770.002ZM3020.4,763.515C3018.46,768.683 3012.69,771.305 3007.52,769.367C3002.36,767.429 2999.73,761.66 3001.67,756.492L3031.67,676.492C3033.29,672.184 3037.64,669.534 3042.2,670.072C3046.78,670.61 3050.39,674.197 3050.96,678.763L3055.92,718.488L3071.67,676.492C3073.61,671.325 3079.38,668.702 3084.55,670.64C3089.71,672.578 3092.34,678.347 3090.4,683.515L3060.4,763.515C3058.78,767.823 3054.44,770.473 3049.87,769.935C3045.3,769.397 3041.68,765.81 3041.11,761.244L3036.15,721.519L3020.4,763.515ZM2864.65,683.515C2862.71,678.347 2865.33,672.578 2870.5,670.64C2875.67,668.702 2881.43,671.325 2883.37,676.492L2913.37,756.492C2915.31,761.66 2912.69,767.429 2907.52,769.367C2902.35,771.305 2896.58,768.683 2894.65,763.515L2864.65,683.515ZM2923.52,676.808C2928.7,672.557 2935.32,670.004 2942.53,670.004L2972.53,670.004C2979.76,670.004 2986.4,672.566 2991.58,676.832C2998.12,682.211 3002.34,690.3 3002.53,699.373C3002.54,699.582 3002.55,699.792 3002.55,700.004C3002.55,700.215 3002.54,700.426 3002.53,700.634C3002.2,705.86 2997.86,710.004 2992.55,710.004C2987.31,710.004 2983,705.963 2982.58,700.831C2982.58,700.831 2982.54,700.381 2982.54,700.004C2982.54,694.484 2978.05,690.004 2972.53,690.004L2942.53,690.004C2937.02,690.004 2932.54,694.484 2932.54,700.004C2932.54,700.334 2932.55,700.661 2932.58,700.984C2932.76,702.769 2948.41,744.391 2949.37,745.748C2951.18,748.321 2954.17,750.004 2957.55,750.004C2960.94,750.004 2963.93,748.321 2965.74,745.748C2966.69,744.391 2967.32,742.787 2967.5,741.051C2967.54,740.707 2967.55,740.357 2967.55,740.004C2967.55,734.484 2963.07,730.004 2957.55,730.004C2955.57,730.004 2953.72,729.424 2952.16,728.424C2949.39,726.645 2947.55,723.537 2947.55,720.004C2947.55,719.029 2947.69,718.087 2947.95,717.196C2949.17,713.042 2953.01,710.004 2957.55,710.004C2961.9,710.004 2966.04,710.931 2969.77,712.598C2972.23,713.7 2974.53,715.125 2976.59,716.82C2980.05,719.669 2982.87,723.28 2984.78,727.395C2986.56,731.229 2987.55,735.501 2987.55,740.004C2987.55,742.164 2987.33,744.271 2986.89,746.302C2986.27,749.222 2985.22,751.985 2983.81,754.522C2980.05,761.295 2973.75,766.465 2966.2,768.737C2963.46,769.561 2960.56,770.004 2957.55,770.004C2954.55,770.004 2951.65,769.561 2948.91,768.737C2941.36,766.465 2935.06,761.295 2931.3,754.522C2929.89,751.985 2913.18,706.189 2913.18,706.189C2912.76,704.193 2912.54,702.124 2912.54,700.004C2912.54,690.662 2916.81,682.312 2923.52,676.808ZM2633.02,690.004C2627.5,690.004 2623.02,685.523 2623.02,680.004C2623.02,674.484 2627.5,670.004 2633.02,670.004L2668.02,670.004C2675.3,670.004 2681.99,672.604 2687.18,676.927C2693.8,682.432 2698.02,690.729 2698.02,700.004C2698.02,702.598 2697.69,705.117 2697.07,707.519L2679.86,753.415C2676.11,760.906 2669.31,766.611 2661.09,768.904C2658.53,769.62 2655.82,770.004 2653.02,770.004L2633.02,770.004C2627.5,770.004 2623.02,765.523 2623.02,760.004C2623.02,757.245 2624.14,754.747 2625.95,752.937C2627.76,751.125 2630.26,750.004 2633.02,750.004L2653.02,750.004C2656.67,750.004 2659.86,748.05 2661.61,745.134C2662.22,744.117 2677.65,702.983 2677.87,701.775C2677.97,701.2 2678.02,700.608 2678.02,700.004C2678.02,694.484 2673.54,690.004 2668.02,690.004L2633.02,690.004ZM3091.02,750.004L3136.02,750.004C3141.53,750.004 3146.02,745.523 3146.02,740.004C3146.02,734.484 3141.53,730.004 3136.02,730.004C3127.14,730.004 3119.16,726.14 3113.66,720.004C3108.91,714.694 3106.02,707.684 3106.02,700.004C3106.02,683.446 3119.46,670.004 3136.02,670.004L3156.02,670.004C3161.53,670.004 3166.02,674.484 3166.02,680.004C3166.02,682.762 3164.9,685.26 3163.09,687.07C3161.28,688.882 3158.78,690.004 3156.02,690.004L3136.02,690.004C3130.5,690.004 3126.02,694.484 3126.02,700.004C3126.02,705.523 3130.5,710.004 3136.02,710.004C3144.89,710.004 3152.87,713.867 3158.37,720.004C3163.12,725.313 3166.02,732.323 3166.02,740.004C3166.02,756.561 3152.57,770.004 3136.02,770.004L3091.02,770.004C3085.5,770 3081.02,765.521 3081.02,760.004C3081.02,754.487 3085.5,750.007 3091.02,750.004Z" style="fill:white;"/>
            </g>
        </g>
    </g>
</svg>
