<?xml version="1.0" encoding="UTF-8" standalone="no"?>
<!DOCTYPE svg PUBLIC "-//W3C//DTD SVG 1.1//EN" "http://www.w3.org/Graphics/SVG/1.1/DTD/svg11.dtd">
<svg width="100%" height="100%" viewBox="0 0 1081 1081" version="1.1" xmlns="http://www.w3.org/2000/svg" xmlns:xlink="http://www.w3.org/1999/xlink" xml:space="preserve" xmlns:serif="http://www.serif.com/" style="fill-rule:evenodd;clip-rule:evenodd;stroke-linejoin:round;stroke-miterlimit:2;">
    <g transform="matrix(1,0,0,1,-1208,-2462)">
        <g id="SD" transform="matrix(1,0,0,1,-2331.66,2462.14)">
            <rect x="3540" y="0" width="1080" height="1080" style="fill:none;"/>
            <g transform="matrix(0.499982,0,0,0.499982,2341.3,270.01)">
                <path d="M2939.99,480L2910,480C2898.96,480 2890,488.962 2890,500C2890,511.038 2898.96,520 2910,520L2939.99,520L2940.01,520C2948.72,520 2956.99,521.858 2964.46,525.198C2985.4,534.565 3000.01,555.59 3000.01,580C3000.01,613.115 2973.13,640 2940.01,640L2910,640C2898.96,640 2890,631.038 2890,620C2890,618.033 2890.28,616.132 2890.82,614.336C2893.26,606.052 2900.93,600 2910,600L2940.01,600C2951.05,600 2960.01,591.038 2960.01,580C2960.01,568.962 2951.05,560 2940.01,560L2939.99,560L2910,560C2901.3,560 2893.02,558.142 2885.55,554.802C2864.61,545.436 2850,524.41 2850,500C2850,470.174 2871.81,445.402 2900.34,440.775C2903.48,440.265 2906.71,440 2910,440L2940.03,440C2951.05,440.021 2959.99,448.975 2959.99,460C2959.99,461.958 2959.7,463.85 2959.18,465.639C2956.75,473.924 2949.09,479.983 2940.03,480L2939.99,480ZM3038.93,453.61C3049.28,445.107 3062.53,440 3076.96,440L3136.96,440C3151.39,440 3164.64,445.107 3175,453.61C3188.41,464.617 3196.96,481.317 3196.96,500C3196.96,504.24 3196.52,508.378 3195.68,512.371C3194.42,518.372 3162.28,604.125 3159.28,609.439C3151.74,622.802 3139.22,632.99 3124.24,637.482C3118.78,639.12 3112.99,640 3107,640C3100.99,640 3095.18,639.115 3089.71,637.467C3074.61,632.923 3062.01,622.584 3054.49,609.038C3051.68,603.963 3019.5,518.372 3018.24,512.371C3017.4,508.378 3016.96,504.24 3016.96,500C3016.96,481.317 3025.52,464.617 3038.93,453.61ZM3057.06,501.96C3057.41,505.531 3088.72,588.775 3090.63,591.489C3094.25,596.635 3100.24,600 3107,600C3113.67,600 3119.58,596.73 3123.21,591.708C3125.26,588.88 3156.52,505.531 3156.87,501.959C3156.93,501.315 3156.96,500.661 3156.96,500C3156.96,488.962 3148,480 3136.96,480L3076.96,480C3065.92,480 3056.96,488.962 3056.96,500C3056.96,500.661 3056.99,501.315 3057.06,501.96ZM3269.03,440C3302.14,440 3329.03,466.885 3329.03,500L3329.03,580C3329.03,613.115 3302.14,640 3269.03,640C3235.91,640 3209.03,613.115 3209.03,580C3209.03,568.962 3217.99,560 3229.03,560C3239.65,560 3248.35,568.3 3248.99,578.764C3248.96,579.173 3248.96,580.828 3248.99,581.236C3249.63,591.7 3258.33,600 3268.95,600C3279.99,600 3288.95,591.038 3288.95,580L3288.95,500C3288.95,488.987 3280.03,480.041 3269.03,480L3268.95,480C3257.95,479.959 3249.03,471.013 3249.03,460C3249.03,448.962 3257.99,440 3269.03,440ZM2475.31,540C2465.8,529.382 2460.01,515.361 2460.01,500C2460.01,466.885 2486.9,440 2520.01,440L2610,440C2621.03,440.007 2630,448.966 2630,460C2630,471.034 2621.05,479.993 2610.01,480L2520.01,480C2508.97,480 2500.01,488.962 2500.01,500C2500.01,511.038 2508.97,520 2520.01,520C2537.77,520 2553.73,527.728 2564.72,540C2574.23,550.618 2580.01,564.639 2580.01,580C2580.01,613.115 2553.13,640 2520.01,640L2480.01,640C2468.97,640 2460.01,631.038 2460.01,620C2460.01,614.484 2462.25,609.486 2465.87,605.867C2469.49,602.243 2474.49,600 2480.01,600L2520.01,600C2531.05,600 2540.01,591.038 2540.01,580C2540.01,568.962 2531.05,560 2520.01,560C2502.26,560 2486.3,552.272 2475.31,540ZM2751.27,467.023C2747.4,456.687 2752.64,445.149 2762.98,441.274C2773.31,437.398 2784.85,442.642 2788.73,452.978L2848.73,612.978C2852.6,623.313 2847.36,634.851 2837.02,638.727C2826.69,642.603 2815.15,637.358 2811.27,627.023L2751.27,467.023ZM2648.73,627.023C2644.85,637.358 2633.31,642.603 2622.98,638.727C2612.64,634.851 2607.4,623.313 2611.27,612.978L2671.27,452.978C2674.2,445.172 2681.66,440 2690,440C2698.34,440 2705.8,445.172 2708.73,452.978L2768.73,612.978C2772.6,623.313 2767.36,634.851 2757.02,638.727C2746.69,642.603 2735.15,637.358 2731.27,627.023L2690,516.96L2648.73,627.023ZM3816.05,448.001L3831.07,448.001C3835.29,448.001 3839.01,450.193 3841.15,453.496C3842.36,455.37 3843.07,457.604 3843.07,460.001C3843.07,466.624 3837.69,472.001 3831.07,472.001L3816.05,472.001L3816.03,472.001C3800.57,472.001 3788.03,484.548 3788.03,500.002C3788.03,515.455 3800.57,528.002 3816.03,528.002L3831.04,528.002C3842.67,528.002 3853.41,531.827 3862.08,538.289C3874.79,547.774 3883.04,562.932 3883.04,580.002C3883.04,608.702 3859.74,632.002 3831.04,632.003L3726.02,631.999C3719.41,631.99 3714.04,626.616 3714.04,619.999C3714.04,613.376 3719.42,607.999 3726.04,607.999L3831.04,608.003C3846.49,608.003 3859.04,595.456 3859.04,580.002C3859.04,564.548 3846.49,552.002 3831.04,552.002L3816.03,552.002C3804.4,552.002 3793.66,548.177 3784.99,541.715C3772.27,532.23 3764.03,517.072 3764.03,500.002C3764.03,471.302 3787.33,448.001 3816.03,448.001L3816.05,448.001ZM4136.14,501.002L4136.12,500.839C4136.11,500.76 4136.07,500.351 4136.07,500.002C4136.07,484.548 4123.52,472.001 4108.07,472.001L4048.07,472.001C4032.61,472.001 4020.07,484.548 4020.07,500.002C4020.07,500.925 4020.11,501.837 4020.2,502.738C4020.35,504.251 4025.53,519.352 4032.08,537.02C4041.67,562.859 4054.01,594.412 4055.19,596.094C4060.26,603.297 4068.64,608.003 4078.11,608.003C4087.57,608.003 4095.95,603.297 4101.02,596.094C4103.69,592.291 4105.45,587.793 4105.95,582.927C4106.05,581.966 4106.11,580.99 4106.11,580.002C4106.11,564.548 4093.56,552.002 4078.11,552.002C4075.73,552.002 4073.51,551.309 4071.64,550.111C4068.32,547.975 4066.11,544.245 4066.11,540.002C4066.11,538.832 4066.27,537.701 4066.58,536.632C4068.04,531.647 4072.65,528.002 4078.11,528.002C4085.64,528.002 4092.8,529.606 4099.27,532.495C4103.55,534.405 4107.52,536.877 4111.09,539.815C4117.1,544.756 4121.99,551.018 4125.3,558.155C4128.39,564.798 4130.11,572.201 4130.11,580.002C4130.11,583.749 4129.71,587.403 4128.96,590.926C4127.87,595.982 4126.06,600.766 4123.62,605.16C4117.11,616.903 4106.18,625.87 4093.09,629.809C4088.35,631.237 4083.31,632.003 4078.11,632.003C4072.9,632.003 4067.87,631.237 4063.12,629.809C4050.03,625.87 4039.11,616.903 4032.59,605.16C4029.94,600.377 3999.84,517.802 3997.07,510.19C3996.41,506.891 3996.07,503.486 3996.07,500.002C3996.07,483.808 4003.49,469.335 4015.11,459.794C4024.08,452.425 4035.56,448.001 4048.07,448.001L4108.07,448.001C4120.6,448.001 4132.1,452.442 4141.08,459.834C4152.41,469.16 4159.73,483.179 4160.06,498.906L4160.06,499.072C4160.09,499.491 4160.1,499.745 4160.1,500.002C4160.1,500.258 4160.09,500.512 4160.07,500.765C4159.68,507.034 4154.46,512.001 4148.1,512.001C4141.81,512.001 4136.64,507.159 4136.14,501.002ZM3633.97,448.176C3634.65,448.057 3635.34,447.995 3636.04,447.994C3636.12,447.994 3636.2,447.995 3636.27,447.996L3636.35,447.998L3706.01,447.998L3706.04,447.998C3712.65,448.014 3718.01,453.385 3718.01,459.998C3718.01,465.753 3713.96,470.569 3708.55,471.731C3707.74,471.899 3706.91,471.987 3706.07,471.987L3636.12,471.987L3636.06,471.987C3634.6,471.98 3633.19,471.712 3631.89,471.222C3627.35,469.51 3624.12,465.123 3624.12,459.987C3624.12,454.094 3628.37,449.184 3633.97,448.176ZM3606.06,527.988L3634.9,527.988L3676.03,527.998L3676.06,527.998C3682.67,528.015 3688.03,533.386 3688.03,539.998C3688.03,545.753 3683.97,550.57 3678.56,551.731C3677.76,551.9 3676.93,551.987 3676.08,551.987L3606.06,551.987C3604.59,551.987 3603.17,551.722 3601.87,551.233C3597.31,549.528 3594.06,545.134 3594.06,539.987C3594.06,533.365 3599.44,527.988 3606.06,527.988ZM3576.05,607.988L3604.9,607.999L3646.04,607.999L3646.07,607.999C3652.68,608.016 3658.04,613.387 3658.04,619.999C3658.04,625.754 3653.98,630.571 3648.57,631.732C3647.77,631.9 3646.94,631.988 3646.09,631.988L3576.05,631.988C3569.45,631.969 3564.09,626.599 3564.09,619.988C3564.09,613.378 3569.45,608.008 3576.05,607.988ZM4196.31,624.216C4193.98,630.417 4187.06,633.564 4180.86,631.238C4174.65,628.913 4171.51,621.99 4173.83,615.789L4233.83,455.788C4235.77,450.618 4240.99,447.438 4246.47,448.084C4251.96,448.729 4256.29,453.034 4256.98,458.513L4270.94,570.184L4313.83,455.788C4316.16,449.587 4323.08,446.44 4329.28,448.765C4335.48,451.091 4338.63,458.013 4336.31,464.215L4276.31,624.216C4274.37,629.386 4269.15,632.566 4263.67,631.92C4258.18,631.274 4253.85,626.97 4253.16,621.491L4239.2,509.82L4196.31,624.216ZM3899.78,464.215C3897.45,458.013 3900.6,451.091 3906.8,448.765C3913,446.44 3919.93,449.587 3922.25,455.788L3982.25,615.789C3984.58,621.99 3981.43,628.913 3975.23,631.238C3969.03,633.564 3962.11,630.417 3959.78,624.216L3899.78,464.215ZM3429.04,472.001C3422.41,472.001 3417.04,466.624 3417.04,460.001C3417.04,453.378 3422.41,448.001 3429.04,448.001L3499.04,448.001C3511.66,448.001 3523.24,452.508 3532.25,459.999C3543.72,469.542 3551.04,483.924 3551.04,500.002C3551.04,504.356 3550.5,508.585 3549.49,512.628C3549.49,512.635 3515.38,603.605 3515.38,603.605C3508.83,616.416 3497.14,626.16 3483.03,630.097C3478.58,631.339 3473.88,632.003 3469.04,632.003L3429.04,632.003C3422.41,632.003 3417.04,626.626 3417.04,620.003C3417.04,616.693 3418.38,613.695 3420.55,611.524C3422.72,609.35 3425.72,608.003 3429.04,608.003L3469.04,608.003C3479.24,608.003 3488.17,602.539 3493.07,594.376C3494.32,592.279 3526.15,507.446 3526.6,504.953C3526.89,503.346 3527.04,501.691 3527.04,500.002C3527.04,484.548 3514.49,472.001 3499.04,472.001L3429.04,472.001ZM4345.04,608.003L4435.03,608.003C4450.49,608.003 4463.03,595.456 4463.03,580.002C4463.03,564.548 4450.49,552.002 4435.03,552.002C4419.64,552.002 4405.81,545.302 4396.28,534.665C4388.05,525.463 4383.03,513.313 4383.03,500.002C4383.03,471.302 4406.33,448.001 4435.03,448.001L4475.03,448.001C4481.65,448.001 4487.03,453.378 4487.03,460.001C4487.03,463.311 4485.69,466.308 4483.52,468.48C4481.35,470.654 4478.35,472.001 4475.03,472.001L4435.03,472.001C4419.58,472.001 4407.03,484.548 4407.03,500.002C4407.03,515.455 4419.58,528.002 4435.03,528.002C4450.42,528.002 4464.25,534.702 4473.78,545.339C4482.02,554.541 4487.03,566.691 4487.03,580.002C4487.03,608.702 4463.73,632.003 4435.03,632.003L4345.04,632.003C4338.42,631.998 4333.04,626.623 4333.04,620.003C4333.04,613.382 4338.42,608.007 4345.04,608.003Z" style="fill:white;"/>
            </g>
        </g>
    </g>
</svg>
