<?xml version="1.0" encoding="UTF-8" standalone="no"?>
<!DOCTYPE svg PUBLIC "-//W3C//DTD SVG 1.1//EN" "http://www.w3.org/Graphics/SVG/1.1/DTD/svg11.dtd">
<svg width="100%" height="100%" viewBox="0 0 1080 1081" version="1.1" xmlns="http://www.w3.org/2000/svg" xmlns:xlink="http://www.w3.org/1999/xlink" xml:space="preserve" xmlns:serif="http://www.serif.com/" style="fill-rule:evenodd;clip-rule:evenodd;stroke-linejoin:round;stroke-miterlimit:2;">
    <g transform="matrix(1,0,0,1,0,-1231)">
        <g id="SJ" transform="matrix(1,0,0,1,-3540,1231.07)">
            <rect x="3540" y="0" width="1080" height="1080" style="fill:none;"/>
            <g transform="matrix(0.500013,0,0,0.500013,2780.46,-1045.04)">
                <path d="M2614.03,3110L2559.01,3110C2547.97,3110 2539.01,3118.96 2539.01,3130C2539.01,3141.04 2547.97,3150 2559.01,3150C2576.76,3150 2592.72,3157.73 2603.71,3170C2613.22,3180.62 2619.01,3194.64 2619.01,3210C2619.01,3243.11 2592.12,3270 2559.01,3270L2519.01,3270C2507.97,3270 2499.01,3261.04 2499.01,3250C2499.01,3244.48 2501.25,3239.48 2504.87,3235.87C2508.49,3232.24 2513.49,3230 2519.01,3230L2559.01,3230C2570.05,3230 2579.01,3221.04 2579.01,3210C2579.01,3198.96 2570.05,3190 2559.01,3190C2541.26,3190 2525.29,3182.27 2514.3,3170C2504.8,3159.38 2499.01,3145.36 2499.01,3130C2499.01,3096.89 2525.89,3070 2559.01,3070L2614.03,3070C2609.64,3075.48 2607.01,3082.44 2607.01,3090C2607.01,3097.57 2609.64,3104.52 2614.03,3110ZM2628.91,3227.31C2631.86,3229.02 2635.28,3230 2638.93,3230C2649.97,3230 2658.93,3221.04 2658.93,3210L2658.93,3130C2658.93,3118.99 2650.01,3110.04 2639.01,3110L2638.93,3110C2627.93,3109.96 2619.01,3101.01 2619.01,3090C2619.01,3078.96 2627.97,3070 2639.01,3070C2672.12,3070 2699.01,3096.89 2699.01,3130L2699.01,3210C2699.01,3243.11 2672.12,3270 2639.01,3270C2628.03,3270 2617.75,3267.05 2608.89,3261.89C2618.53,3252.63 2625.6,3240.7 2628.91,3227.31Z" style="fill:white;"/>
            </g>
        </g>
    </g>
</svg>
